<svg xmlns="http://www.w3.org/2000/svg" viewBox="0 0 128 128" fill="none" aria-hidden="true">
  <defs>
    <linearGradient id="g" x1="32" y1="20" x2="96" y2="108" gradientUnits="userSpaceOnUse">
      <stop stop-color="#E8A0C8"/><stop offset="1" stop-color="#FF4D6D"/>
    </linearGradient>
  </defs>
  <ellipse cx="64" cy="72" rx="32" ry="36" fill="url(#g)" fill-opacity=".35" stroke="url(#g)" stroke-width="4"/>
  <path fill="url(#g)" d="M64 22c14 0 24 10 24 22 0 8-4 14-10 18 12 6 18 18 18 32H32c0-14 6-26 18-32-6-4-10-10-10-18 0-12 10-22 24-22z"/>
  <circle cx="52" cy="52" r="4" fill="#1a1020"/><circle cx="76" cy="52" r="4" fill="#1a1020"/>
  <path stroke="#1a1020" stroke-width="3" stroke-linecap="round" d="M56 64h16" opacity=".5"/>
  <path fill="#1a1020" d="M44 28l8-8 8 6 10-10 6 12-18 4z" opacity=".85"/>
</svg>
